<svg width="27" height="24" viewBox="0 0 27 24" fill="none" xmlns="http://www.w3.org/2000/svg">
<path fill-rule="evenodd" clip-rule="evenodd" d="M25.1582 0H1.56836C1.28398 0 1.01124 0.105357 0.810153 0.292893C0.609064 0.48043 0.496094 0.734784 0.496094 1L0.496094 23C0.496094 23.2652 0.609064 23.5196 0.810153 23.7071C1.01124 23.8946 1.28398 24 1.56836 24H14.1675V15H10.9507V11.25H14.1675V8.25C14.1675 5.15 16.2723 3.625 19.2372 3.625C20.6568 3.625 21.8781 3.724 22.2331 3.767V7.007L20.1775 7.008C18.5648 7.008 18.1885 7.723 18.1885 8.771V11.25H22.2095L21.4053 15H18.1885L18.2528 24H25.1582C25.4426 24 25.7153 23.8946 25.9164 23.7071C26.1175 23.5196 26.2305 23.2652 26.2305 23V1C26.2305 0.734784 26.1175 0.48043 25.9164 0.292893C25.7153 0.105357 25.4426 0 25.1582 0" fill="#C4C4C4"/>
</svg>
