<svg width="27" height="24" viewBox="0 0 27 24" fill="none" xmlns="http://www.w3.org/2000/svg">
<path d="M25.5839 0H1.90828C1.33891 0 0.878906 0.429 0.878906 0.96V23.04C0.878906 23.571 1.33891 24 1.90828 24H25.5839C26.1533 24 26.6133 23.571 26.6133 23.04V0.96C26.6133 0.429 26.1533 0 25.5839 0ZM20.6719 8.691C20.6815 8.832 20.6815 8.979 20.6815 9.123C20.6815 13.527 17.0851 18.6 10.5132 18.6C8.48663 18.6 6.60802 18.051 5.02536 17.106C5.31487 17.136 5.59151 17.148 5.88746 17.148C7.56019 17.148 9.09782 16.62 10.3234 15.726C8.75362 15.696 7.43474 14.736 6.98439 13.416C7.53446 13.491 8.02985 13.491 8.596 13.356C7.7877 13.2029 7.06119 12.7934 6.53988 12.1973C6.01857 11.6012 5.73462 10.8552 5.73627 10.086V10.044C6.20914 10.293 6.76564 10.446 7.34788 10.467C6.85842 10.1628 6.45702 9.75063 6.17926 9.26709C5.9015 8.78355 5.75597 8.24356 5.75557 7.695C5.75557 7.074 5.92928 6.507 6.24131 6.015C7.13848 7.04501 8.25802 7.88743 9.52715 8.4875C10.7963 9.08757 12.1866 9.43186 13.6078 9.498C13.1027 7.233 14.917 5.4 17.098 5.4C18.1274 5.4 19.0538 5.802 19.7068 6.45C20.5142 6.309 21.2863 6.027 21.9747 5.649C21.7077 6.42 21.1479 7.071 20.4049 7.482C21.1254 7.41 21.8203 7.224 22.4636 6.963C21.9779 7.629 21.3699 8.22 20.6719 8.691Z" fill="#C4C4C4"/>
</svg>
